<?xml version="1.0" encoding="utf-8"?>
<!DOCTYPE svg PUBLIC "-//W3C//DTD SVG 1.1//EN" "http://www.w3.org/Graphics/SVG/1.1/DTD/svg11.dtd">
<svg version="1.1" id="Layer_1" xmlns="http://www.w3.org/2000/svg" x="0px" y="0px" viewBox="0 0 239 241">

	<path fill="#696969" d="M119,216.6c-52.9,0-95.9-43-95.9-95.9c0-52.9,43-95.9,95.9-95.9c52.9,0,95.9,43,95.9,95.9
		C214.9,173.6,171.9,216.6,119,216.6z M119,35.9c-46.8,0-84.9,38.1-84.9,84.9c0,46.8,38.1,84.9,84.9,84.9
		c46.8,0,84.9-38.1,84.9-84.9C203.9,74,165.8,35.9,119,35.9z"/>
	<path fill="#696969" d="M126,99.7c0-1.1,0.1-1.9,0.2-2.5c0.1-0.6,0.3-1.2,0.7-1.8c0.4-0.6,0.9-1,1.7-1.2c0.8-0.2,1.9-0.3,3.2-0.3
		h7.3V79.3h-11.6c-6.7,0-11.6,1.6-14.5,4.8c-2.9,3.2-4.4,7.9-4.4,14.1v8.8h-8.7v14.5h8.7v42.2H126v-42.2h11.6l1.5-14.5H126V99.7z"/>

</svg>
