<?xml version="1.0" encoding="UTF-8" standalone="no"?>
<svg width="275px" height="55px" viewBox="0 0 275 55" version="1.1" xmlns="http://www.w3.org/2000/svg" xmlns:xlink="http://www.w3.org/1999/xlink">
<g id="Heart">
	<polygon id="Fill-1" fill="#DA7643" points="16.1,16.1 16.1,23.6 16.1,23.6 16.1,31.2 16.1,38.7 23.7,38.7 23.7,31.2 23.7,23.6 
		23.7,23.6 23.7,16.1 	"/>
	<polygon id="Fill-2" fill="#4C5657" points="31.2,38.7 23.7,38.7 23.6,38.7 16.1,38.7 16.1,46.2 23.6,46.2 23.6,53.8 31.2,53.8 
		31.2,46.2 38.8,46.2 38.8,38.7 	"/>
	<polygon id="Fill-3" fill="#811E41" points="31.2,8.5 31.2,16.1 23.6,16.1 23.6,22.2 23.6,23.6 23.6,31.2 31.2,31.2 31.2,23.6 
		38.8,23.6 38.8,16.1 38.8,8.5 	"/>
	<polygon id="Fill-4" fill="#C62E4E" points="1,23.6 1,31.2 8.6,31.2 8.6,31.2 8.6,38.7 16.1,38.7 16.1,31.2 16.1,23.6 8.6,23.6 
		8.6,23.6 	"/>
	<polygon id="Fill-5" fill="#DA7643" points="38.8,16.1 46.3,16.1 46.3,8.5 38.8,8.5 	"/>
	<polygon id="Fill-6" fill="#4C5657" points="46.3,8.5 53.9,8.5 53.9,1 46.3,1 	"/>
	<polygon id="Fill-8" fill="#935975" points="38.8,31.2 38.8,23.6 31.2,23.6 31.2,31.2 23.6,31.2 23.6,38.7 31.2,38.7 38.8,38.7 
		46.3,38.7 46.3,31.2 	"/>
	<polygon id="Fill-9" fill="#CDAA72" points="16.1,16.1 23.7,16.1 23.7,8.5 16.1,8.5 	"/>
	<polygon id="Fill-10" fill="#935975" points="8.6,8.5 8.6,16.1 1,16.1 1,23.6 8.6,23.6 16.1,23.6 16.1,16.1 16.1,8.5 	"/>
	<polygon id="Fill-11" fill="#606161" points="41.8,20 43.3,18.5 44.8,20 46.3,18.5 47.8,20 49.3,18.5 50.8,20 52.3,18.5 53.8,20 
		53.9,20 53.9,18.5 53.8,18.5 52.3,17 50.8,18.5 49.3,17 47.8,18.5 46.3,17 44.8,18.5 43.3,17 41.8,18.5 40.2,17 38.8,18.5 38.8,20 
		40.2,18.5 	"/>
	<polygon id="Fill-12" fill="#606161" points="52.3,22.1 50.8,23.6 49.3,22.1 47.8,23.6 46.3,22.1 44.8,23.6 43.3,22.1 41.8,23.6 
		40.2,22.1 38.8,23.6 38.8,25.1 40.2,23.6 41.8,25.1 43.3,23.6 44.8,25.1 46.3,23.6 47.8,25.1 49.3,23.6 50.8,25.1 52.3,23.6 
		53.8,25.1 53.9,25.1 53.9,23.6 53.8,23.6 	"/>
	<polygon id="Fill-13" fill="#606161" points="52.3,27.2 50.8,28.7 49.3,27.2 47.8,28.7 46.3,27.2 44.8,28.7 43.3,27.2 41.8,28.7 
		40.2,27.2 38.8,28.7 38.8,30.2 40.2,28.7 41.8,30.2 43.3,28.7 44.8,30.2 46.3,28.7 47.8,30.2 49.3,28.7 50.8,30.2 52.3,28.7 
		53.8,30.2 53.9,30.2 53.9,28.7 53.8,28.7 	"/>
</g>
<g id="HEARTCOUNT" fill="#414042">
	<polygon id="H1" points="75,38.4 75,29.5 66.6,29.5 66.6,38.4 62.9,38.4 62.9,17.8 66.6,17.8 66.6,26.3 75,26.3 
		75,17.8 78.6,17.8 78.6,38.4 	"/>
	<polygon id="E1" points="85.5,38.4 85.5,17.8 99.7,17.8 99.7,21.1 89.1,21.1 89.1,26.3 99.4,26.3 99.4,29.5 
		89.1,29.5 89.1,35.1 99.7,35.1 99.7,38.4 	"/>
	<path id="A1" d="M113.7,21.9l-2.9,8.1h5.8L113.7,21.9z M119.6,38.4l-1.9-5.2h-8l-1.9,5.2h-3.8l8-20.6h3.7l7.9,20.6
		H119.6z"/>
	<path id="R1" d="M139.8,21.7c-0.5-0.5-0.7-0.6-4.4-0.6H132v5.7h3.7c1,0,3.1,0,3.7-0.2c0.5-0.2,1.1-0.8,1.1-2.6
		C140.4,22.7,140.2,22,139.8,21.7L139.8,21.7z M140.5,38.4v-5.3c0-3.1,0-3-5-3H132v8.4h-3.6V17.8h7.2c4.7,0,8.5,0.2,8.5,5.9
		c0,2.5-0.5,3.9-2,4.6c2.3,0.7,2,3.4,2,5.1v5H140.5z"/>
	<polygon id="T1" points="158.1,21.1 158.1,38.4 154.5,38.4 154.5,21.1 148.2,21.1 148.2,17.8 164.4,17.8 
		164.4,21.1 	"/>
	<path id="C1" d="M177.7,38.7c-8.3,0-8.4-4.4-8.4-10.5c0-6.2,0.1-10.5,8.4-10.5c4.8,0,7.4,1.4,7.4,5.8h-2.7
		c0-2.5-1-3.3-5-3.3c-5.2,0-5.4,2.1-5.4,8s0.2,8,5.4,8c4,0,5-0.7,5-3.2h2.7C185.2,37.3,182.5,38.7,177.7,38.7"/>
	<path id="O1" d="M204,21.7c-0.7-1.1-2-1.6-4.6-1.6c-2.6,0-3.9,0.5-4.6,1.6c-0.7,1-0.9,2.4-0.9,6.4s0.2,5.3,0.9,6.4
		c0.7,1.1,2,1.6,4.6,1.6c2.5,0,3.8-0.5,4.5-1.6c0.7-1,0.9-2.5,0.9-6.4S204.7,22.8,204,21.7 M199.5,38.7c-8.2,0-8.2-4.4-8.2-10.5
		s0-10.5,8.2-10.5c8.2,0,8.2,4.3,8.2,10.5C207.7,34.5,207.5,38.7,199.5,38.7"/>
	<path id="U1" d="M229.7,32.6c-0.1,1-0.2,1.8-0.5,2.5c-1,2.5-3.5,3.6-7.1,3.6c-3.6,0-6.1-1.1-7.1-3.6
		c-0.3-0.7-0.4-1.5-0.5-2.5c-0.1-1-0.1-2.3-0.1-4.5V17.8h2.7v10.2c0,3-0.1,5,0.5,6.2c0.6,1.2,1.9,1.9,4.4,1.9c2.6,0,3.9-0.6,4.4-1.8
		c0.6-1.2,0.5-3.2,0.5-6.3V17.8h2.7v10.2C229.8,30.2,229.8,31.6,229.7,32.6"/>
	<polygon id="N1" points="249.1,38.4 239.6,22.4 239.6,38.4 237,38.4 237,17.8 239.8,17.8 249.4,33.8 249.4,17.8 
		252,17.8 252,38.4 	"/>
	<polygon id="T2" points="266.5,20.3 266.5,38.4 263.8,38.4 263.8,20.3 257.3,20.3 257.3,17.8 272.9,17.8 
		272.9,20.3 	"/>
</g>
</svg>
